# xmcd CD database file
#
# Track frame offsets:
#	150
#	12716
#	21900
#	33528
#	46398
#	58958
#	71023
#	88403
#	102601
#	112337
#	125137
#	138327
#	148638
#	158260
#	168371
#	177565
#	188680
#	201148
#	212268
#	221989
#
# Disc length: 3114 seconds
#
# Revision: 0
# Processed by: cddbd v1.5.2PL0 Copyright (c) Steve Scherf et al.
# Submitted via: CDex 1.70beta2
#
DISCID=3d0c2814
DTITLE=Hank Snow - I'm Movin' On CD 3
DYEAR=1900
DGENRE=Country
TTITLE0=I'm Movin' In
TTITLE1=Hula Rock
TTITLE2=Born To Lose
TTITLE3=Memories Are Made Of This
TTITLE4=Singing The Blues
TTITLE5=Two Won't Care
TTITLE6=Wedding Bells
TTITLE7=I Almost Lost My Mind
TTITLE8=Loose Talk
TTITLE9=The Hands
TTITLE10=My Live With You
TTITLE11=La Paloma
TTITLE12=New Spanish Two-Step
TTITLE13=Reminiscin'
TTITLE14=La Cucaracha
TTITLE15=In An Eighteenth Century Drawing Room
TTITLE16=Stolen Moments
TTITLE17=Conscience I'm Guiltey
TTITLE18=Poison Love
TTITLE19=My Arms Are My House
EXTD=
EXTT0=
EXTT1=
EXTT2=
EXTT3=
EXTT4=
EXTT5=
EXTT6=
EXTT7=
EXTT8=
EXTT9=
EXTT10=
EXTT11=
EXTT12=
EXTT13=
EXTT14=
EXTT15=
EXTT16=
EXTT17=
EXTT18=
EXTT19=
PLAYORDER=
